# xmcd
#
# Track frame offsets:
#	150
#	17462
#	34222
#	54931
#
# Disc length: 1020 seconds
#
# Revision: 0
# Processed by: cddbd v1.5.2PL0 Copyright (c) Steve Scherf et al.
# Submitted via: EasyCDDAExtractor 10.0.3.1
#
DISCID=2403fa04
DTITLE=RIVERSIDE - SINGLE
DYEAR=1900
DGENRE=
TTITLE0=Loose Heart - RADIO EDIT
TTITLE1=Out Of Myself
TTITLE2=In Two Minds
TTITLE3=Loose Heart - ALBUM VERSION
EXTD=
EXTT0=
EXTT1=
EXTT2=
EXTT3=
PLAYORDER=
